<?xml version="1.0" encoding="UTF-8"?>
<svg id="svgAmber" xmlns="http://www.w3.org/2000/svg" viewBox="0 0 100 100" fill="none" aria-label="Codezal glyph amber" data-om-id="2201775a:15" width="1024" height="1024">
          <defs data-om-id="2201775a:16">
            <linearGradient id="amberG" x1="0" y1="0" x2="0" y2="1" data-om-id="2201775a:17">
              <stop offset="0" stop-color="#a85b08" data-om-id="2201775a:18"/>
              <stop offset="1" stop-color="#5a2c04" data-om-id="2201775a:19"/>
            </linearGradient>
          </defs>
          <path id="curlyL_a" stroke="url(#amberG)" stroke-width="5" stroke-linecap="round" stroke-linejoin="round" fill="none" d="M 40 26 Q 28 26 28 38 Q 28 50 18 50 Q 28 50 28 62 Q 28 74 40 74" data-om-id="2201775a:20"/>
          <path id="curlyR_a" stroke="url(#amberG)" stroke-width="5" stroke-linecap="round" stroke-linejoin="round" fill="none" d="M 60 26 Q 72 26 72 38 Q 72 50 82 50 Q 72 50 72 62 Q 72 74 60 74" data-om-id="2201775a:21"/>
          <g id="starG_a" fill="url(#amberG)" data-om-id="2201775a:22" transform="translate(50,50) scale(0.26) translate(-50,-50)"><path d="M 50.000,8.000 L 58.419,29.675 L 79.698,20.302 L 70.325,41.581 L 92.000,50.000 L 70.325,58.419 L 79.698,79.698 L 58.419,70.325 L 50.000,92.000 L 41.581,70.325 L 20.302,79.698 L 29.675,58.419 L 8.000,50.000 L 29.675,41.581 L 20.302,20.302 L 41.581,29.675 Z" fill="url(#amberG)"/></g>
        </svg>