<svg xmlns="http://www.w3.org/2000/svg" viewBox="0 0 1024 1024" width="1024" height="1024"><defs><linearGradient id="bg" x1="0.15" y1="0" x2="0.85" y2="1"><stop offset="0" stop-color="#faf0d8"/><stop offset="1" stop-color="#ecdcb5"/></linearGradient><linearGradient id="stk" x1="0" y1="0" x2="0" y2="1"><stop offset="0" stop-color="#a85b08"/><stop offset="1" stop-color="#5a2c04"/></linearGradient><radialGradient id="spc" cx="0.5" cy="0.45" r="0.55"><stop offset="0" stop-color="#ffe39a"/><stop offset="0.55" stop-color="#f5b544"/><stop offset="1" stop-color="#c97816"/></radialGradient><radialGradient id="spd" cx="0.5" cy="0.45" r="0.55"><stop offset="0" stop-color="#ffffff"/><stop offset="0.55" stop-color="#ffd690"/><stop offset="1" stop-color="#f5b544"/></radialGradient><radialGradient id="halo" cx="0.5" cy="0.5" r="0.42"><stop offset="0" stop-color="#f5b544" stop-opacity="0.45"/><stop offset="1" stop-color="#f57828" stop-opacity="0"/></radialGradient><linearGradient id="tophl" x1="0.5" y1="0" x2="0.5" y2="0.5"><stop offset="0" stop-color="#ffffff" stop-opacity="0.18"/><stop offset="0.5" stop-color="#ffffff" stop-opacity="0.03"/><stop offset="1" stop-color="#ffffff" stop-opacity="0"/></linearGradient><clipPath id="sq"><rect width="1024" height="1024" rx="229" ry="229"/></clipPath></defs><g clip-path="url(#sq)"><rect width="1024" height="1024" fill="url(#bg)"/><g transform="scale(10.24)"><path d="M 40 26 Q 28 26 28 38 Q 28 50 18 50 Q 28 50 28 62 Q 28 74 40 74" stroke="url(#stk)" stroke-width="5" stroke-linecap="round" stroke-linejoin="round" fill="none"/><path d="M 60 26 Q 72 26 72 38 Q 72 50 82 50 Q 72 50 72 62 Q 72 74 60 74" stroke="url(#stk)" stroke-width="5" stroke-linecap="round" stroke-linejoin="round" fill="none"/><g transform="translate(50,50) scale(0.26) translate(-50,-50)"><path d="M 50.00,8.00 L 58.42,29.67 L 79.70,20.30 L 70.33,41.58 L 92.00,50.00 L 70.33,58.42 L 79.70,79.70 L 58.42,70.33 L 50.00,92.00 L 41.58,70.33 L 20.30,79.70 L 29.67,58.42 L 8.00,50.00 L 29.67,41.58 L 20.30,20.30 L 41.58,29.67 Z" fill="url(#stk)"/></g></g><rect width="1024" height="1024" fill="url(#tophl)"/></g></svg>