<?xml version="1.0" encoding="UTF-8"?>
<svg id="svgWhite" xmlns="http://www.w3.org/2000/svg" viewBox="0 0 100 100" fill="none" aria-label="Codezal glyph white" data-om-id="2201775a:31" width="1024" height="1024">
          <path id="curlyL_w" stroke="#ffffff" stroke-width="5" stroke-linecap="round" stroke-linejoin="round" fill="none" d="M 40 26 Q 28 26 28 38 Q 28 50 18 50 Q 28 50 28 62 Q 28 74 40 74" data-om-id="2201775a:32"/>
          <path id="curlyR_w" stroke="#ffffff" stroke-width="5" stroke-linecap="round" stroke-linejoin="round" fill="none" d="M 60 26 Q 72 26 72 38 Q 72 50 82 50 Q 72 50 72 62 Q 72 74 60 74" data-om-id="2201775a:33"/>
          <g id="starG_w" fill="#ffffff" data-om-id="2201775a:34" transform="translate(50,50) scale(0.26) translate(-50,-50)"><path d="M 50.000,8.000 L 58.419,29.675 L 79.698,20.302 L 70.325,41.581 L 92.000,50.000 L 70.325,58.419 L 79.698,79.698 L 58.419,70.325 L 50.000,92.000 L 41.581,70.325 L 20.302,79.698 L 29.675,58.419 L 8.000,50.000 L 29.675,41.581 L 20.302,20.302 L 41.581,29.675 Z" fill="#ffffff"/></g>
        </svg>